<?xml version="1.0" standalone="no"?>
<!DOCTYPE svg PUBLIC "-//W3C//DTD SVG 20010904//EN"
 "http://www.w3.org/TR/2001/REC-SVG-20010904/DTD/svg10.dtd">
<svg version="1.0" xmlns="http://www.w3.org/2000/svg"
 width="900" height="900" viewBox="0 0 746.000000 847.000000"
 preserveAspectRatio="xMidYMid meet">
<g transform="translate(0.000000,847.000000) scale(0.100000,-0.100000)"
fill="#000000" stroke="none">
<path fill="#da222a" style=" stroke: black; stroke-width: 3cm;" d="M5740 7846 c-308 -58 -573 -232 -747 -493 -184 -276 -233 -645 -127
-961 58 -174 149 -319 281 -449 45 -45 83 -84 83 -87 0 -2 -46 -1 -103 1 -90
5 -109 3 -150 -15 -85 -38 -197 -162 -261 -289 -27 -55 -38 -60 -95 -44 -21 6
-27 17 -42 89 -33 153 -127 283 -226 316 -83 26 -373 66 -488 66 -122 0 -256
-122 -346 -314 -117 -250 -113 -607 8 -815 65 -113 354 -385 543 -512 52 -35
106 -72 120 -81 250 -173 430 -276 575 -328 50 -18 95 -37 102 -44 21 -20 29
-128 21 -276 -13 -230 -16 -440 -7 -446 5 -3 8 -20 8 -37 l-1 -32 -7 30 c-11
49 -21 6 -21 -88 0 -100 -12 -238 -50 -597 -16 -151 -35 -325 -41 -385 -17
-159 -7 -372 21 -460 95 -299 317 -465 645 -482 l110 -6 63 -59 c154 -143 434
-218 708 -190 235 25 391 106 454 237 55 116 50 203 -30 455 -154 490 -231
832 -310 1379 -53 368 -78 620 -100 985 l-10 169 71 74 c87 92 145 180 166
252 28 99 10 271 -52 502 -18 65 -18 66 5 155 37 145 37 202 1 345 -17 68 -44
165 -61 214 -16 50 -30 95 -30 100 0 6 14 16 30 23 58 26 177 110 243 172 157
146 262 321 324 540 31 106 42 315 24 441 -15 100 -66 260 -115 357 -74 147
-230 320 -376 417 -127 85 -273 142 -429 170 -98 18 -288 18 -381 1z m-1754
-2056 c24 0 44 -4 44 -8 0 -5 -16 -26 -36 -48 -44 -48 -100 -158 -126 -244
-39 -130 -35 -373 10 -533 21 -78 10 -84 -113 -62 -156 28 -202 429 -80 700
28 63 93 149 137 182 27 20 40 24 77 19 24 -3 63 -6 87 -6z m342 -78 c38 -39
89 -159 79 -186 -3 -8 -25 -17 -49 -21 -126 -21 -300 -123 -360 -213 l-19 -27
6 40 c12 74 34 151 58 206 13 30 27 62 30 72 4 11 12 15 18 11 8 -4 9 -3 5 5
-12 18 63 108 108 130 60 29 81 26 124 -17z m858 -42 c37 0 64 -4 64 -10 0 -6
-22 -38 -49 -73 -65 -84 -105 -164 -133 -272 -20 -77 -23 -113 -22 -255 0
-160 6 -203 49 -372 l7 -28 -69 0 c-54 0 -80 5 -114 23 -40 21 -48 32 -84 113
l-39 89 0 180 c0 162 2 187 23 254 13 41 30 86 37 100 8 14 14 31 14 37 0 15
76 122 118 167 44 47 68 58 106 52 16 -3 57 -5 92 -5z m357 -58 c65 -44 109
-139 128 -278 23 -172 -23 -386 -116 -545 -19 -33 -35 -62 -35 -64 0 -15 -94
-96 -126 -110 -49 -20 -83 -12 -122 28 -43 45 -71 115 -89 230 -15 86 -15 114
-4 214 11 103 49 250 70 278 5 5 12 21 16 35 12 39 72 129 113 167 66 62 117
76 165 45z"/>
<path d="M5392 5306 c-43 -49 -65 -124 -64 -221 0 -131 44 -205 112 -190 66
14 118 123 121 251 3 124 -34 194 -102 194 -30 0 -43 -7 -67 -34z"/>
</g>
</svg>
