<svg version="1.0" xmlns="http://www.w3.org/2000/svg"
 width="26.000000pt" height="51.000000pt" viewBox="0 0 26.000000 51.000000"
 preserveAspectRatio="xMidYMid meet">

<g transform="translate(0.000000,51.000000) scale(0.100000,-0.100000)"
fill="#a61d25" stroke="none">
<path d="M114 455 c-22 -22 -25 -31 -19 -65 l7 -39 -30 11 c-40 16 -64 -3 -60
-46 2 -22 14 -38 45 -61 l42 -30 -6 -72 -6 -73 36 -15 c41 -17 93 -20 101 -6
4 5 -1 36 -9 68 -18 69 -11 216 11 234 22 18 17 73 -9 97 -31 29 -72 28 -103
-3z"/>
</g>
</svg>
